<mxfile host="65bd71144e">
    <diagram id="C5RBs43oDa-KdzZeNtuy" name="Page-1">
        <mxGraphModel dx="1541" dy="1744" grid="1" gridSize="10" guides="1" tooltips="1" connect="1" arrows="1" fold="1" page="1" pageScale="1" pageWidth="827" pageHeight="1169" background="#F1FAEE" math="0" shadow="0">
            <root>
                <mxCell id="WIyWlLk6GJQsqaUBKTNV-0"/>
                <mxCell id="WIyWlLk6GJQsqaUBKTNV-1" parent="WIyWlLk6GJQsqaUBKTNV-0"/>
                <mxCell id="A_P6nnBkY9lH0_vDPr5M-51" value="" style="endArrow=classic;html=1;rounded=1;sketch=0;fontSize=14;fontColor=#1D3557;strokeColor=#457B9D;fillColor=#A8DADC;curved=0;" parent="WIyWlLk6GJQsqaUBKTNV-1" edge="1">
                    <mxGeometry width="50" height="50" relative="1" as="geometry">
                        <mxPoint x="949.38" y="30" as="sourcePoint"/>
                        <mxPoint x="949.38" y="-120" as="targetPoint"/>
                    </mxGeometry>
                </mxCell>
                <mxCell id="A_P6nnBkY9lH0_vDPr5M-67" value="" style="edgeStyle=orthogonalEdgeStyle;curved=0;rounded=1;sketch=0;orthogonalLoop=1;jettySize=auto;html=1;fontSize=14;fontColor=#FFFF00;strokeColor=#457B9D;fillColor=#A8DADC;" parent="WIyWlLk6GJQsqaUBKTNV-1" source="A_P6nnBkY9lH0_vDPr5M-0" target="A_P6nnBkY9lH0_vDPr5M-33" edge="1">
                    <mxGeometry relative="1" as="geometry"/>
                </mxCell>
                <mxCell id="A_P6nnBkY9lH0_vDPr5M-0" value="首頁" style="rhombus;whiteSpace=wrap;html=1;shadow=0;fontFamily=Helvetica;fontSize=12;align=center;strokeWidth=1;spacing=6;spacingTop=-4;fillColor=#A8DADC;strokeColor=#457B9D;fontColor=#1D3557;" parent="WIyWlLk6GJQsqaUBKTNV-1" vertex="1">
                    <mxGeometry x="600" y="30" width="200" height="200" as="geometry"/>
                </mxCell>
                <mxCell id="A_P6nnBkY9lH0_vDPr5M-87" style="edgeStyle=orthogonalEdgeStyle;curved=0;rounded=1;sketch=0;orthogonalLoop=1;jettySize=auto;html=1;exitX=0;exitY=0.5;exitDx=0;exitDy=0;entryX=0.999;entryY=0.186;entryDx=0;entryDy=0;entryPerimeter=0;fontSize=14;fontColor=#000000;strokeColor=#457B9D;fillColor=#A8DADC;" parent="WIyWlLk6GJQsqaUBKTNV-1" source="A_P6nnBkY9lH0_vDPr5M-1" target="A_P6nnBkY9lH0_vDPr5M-85" edge="1">
                    <mxGeometry relative="1" as="geometry"/>
                </mxCell>
                <mxCell id="A_P6nnBkY9lH0_vDPr5M-1" value="廣播訊息設定" style="rhombus;whiteSpace=wrap;html=1;shadow=0;fontFamily=Helvetica;fontSize=12;align=center;strokeWidth=1;spacing=6;spacingTop=-4;fillColor=#A8DADC;strokeColor=#457B9D;fontColor=#1D3557;" parent="WIyWlLk6GJQsqaUBKTNV-1" vertex="1">
                    <mxGeometry x="450" y="200" width="200" height="200" as="geometry"/>
                </mxCell>
                <mxCell id="A_P6nnBkY9lH0_vDPr5M-2" value="顧客管理" style="rhombus;whiteSpace=wrap;html=1;shadow=0;fontFamily=Helvetica;fontSize=12;align=center;strokeWidth=1;spacing=6;spacingTop=-4;fillColor=#A8DADC;strokeColor=#457B9D;fontColor=#1D3557;" parent="WIyWlLk6GJQsqaUBKTNV-1" vertex="1">
                    <mxGeometry x="450" y="460" width="200" height="200" as="geometry"/>
                </mxCell>
                <mxCell id="A_P6nnBkY9lH0_vDPr5M-3" value="菜單管理" style="rhombus;whiteSpace=wrap;html=1;shadow=0;fontFamily=Helvetica;fontSize=12;align=center;strokeWidth=1;spacing=6;spacingTop=-4;fillColor=#A8DADC;strokeColor=#457B9D;fontColor=#1D3557;" parent="WIyWlLk6GJQsqaUBKTNV-1" vertex="1">
                    <mxGeometry x="850" y="30" width="200" height="200" as="geometry"/>
                </mxCell>
                <mxCell id="A_P6nnBkY9lH0_vDPr5M-4" value="分析資料" style="rhombus;whiteSpace=wrap;html=1;shadow=0;fontFamily=Helvetica;fontSize=12;align=center;strokeWidth=1;spacing=6;spacingTop=-4;fillColor=#A8DADC;strokeColor=#457B9D;fontColor=#1D3557;" parent="WIyWlLk6GJQsqaUBKTNV-1" vertex="1">
                    <mxGeometry x="990" y="200" width="200" height="200" as="geometry"/>
                </mxCell>
                <mxCell id="A_P6nnBkY9lH0_vDPr5M-5" value="訂單管理" style="rhombus;whiteSpace=wrap;html=1;shadow=0;fontFamily=Helvetica;fontSize=12;align=center;strokeWidth=1;spacing=6;spacingTop=-4;fillColor=#A8DADC;strokeColor=#457B9D;fontColor=#1D3557;" parent="WIyWlLk6GJQsqaUBKTNV-1" vertex="1">
                    <mxGeometry x="990" y="460" width="200" height="200" as="geometry"/>
                </mxCell>
                <mxCell id="A_P6nnBkY9lH0_vDPr5M-14" value="" style="edgeStyle=orthogonalEdgeStyle;rounded=0;orthogonalLoop=1;jettySize=auto;html=1;strokeColor=#457B9D;fontColor=#1D3557;labelBackgroundColor=#F1FAEE;" parent="WIyWlLk6GJQsqaUBKTNV-1" source="A_P6nnBkY9lH0_vDPr5M-7" target="A_P6nnBkY9lH0_vDPr5M-2" edge="1">
                    <mxGeometry relative="1" as="geometry"/>
                </mxCell>
                <mxCell id="A_P6nnBkY9lH0_vDPr5M-7" value="營養成分表" style="rhombus;whiteSpace=wrap;html=1;shadow=0;fontFamily=Helvetica;fontSize=12;align=center;strokeWidth=1;spacing=6;spacingTop=-4;fillColor=#A8DADC;strokeColor=#457B9D;fontColor=#1D3557;" parent="WIyWlLk6GJQsqaUBKTNV-1" vertex="1">
                    <mxGeometry x="720" y="460" width="200" height="200" as="geometry"/>
                </mxCell>
                <mxCell id="A_P6nnBkY9lH0_vDPr5M-8" value="" style="endArrow=classic;startArrow=classic;html=1;rounded=0;entryX=0.32;entryY=0.807;entryDx=0;entryDy=0;entryPerimeter=0;exitX=1;exitY=0;exitDx=0;exitDy=0;strokeColor=#457B9D;fontColor=#1D3557;labelBackgroundColor=#F1FAEE;" parent="WIyWlLk6GJQsqaUBKTNV-1" source="A_P6nnBkY9lH0_vDPr5M-1" target="A_P6nnBkY9lH0_vDPr5M-0" edge="1">
                    <mxGeometry width="50" height="50" relative="1" as="geometry">
                        <mxPoint x="600" y="240" as="sourcePoint"/>
                        <mxPoint x="640" y="200" as="targetPoint"/>
                    </mxGeometry>
                </mxCell>
                <mxCell id="A_P6nnBkY9lH0_vDPr5M-9" value="" style="endArrow=classic;startArrow=classic;html=1;rounded=0;exitX=0.5;exitY=0;exitDx=0;exitDy=0;strokeColor=#457B9D;fontColor=#1D3557;labelBackgroundColor=#F1FAEE;" parent="WIyWlLk6GJQsqaUBKTNV-1" source="A_P6nnBkY9lH0_vDPr5M-2" edge="1">
                    <mxGeometry width="50" height="50" relative="1" as="geometry">
                        <mxPoint x="500" y="450" as="sourcePoint"/>
                        <mxPoint x="550" y="400" as="targetPoint"/>
                    </mxGeometry>
                </mxCell>
                <mxCell id="A_P6nnBkY9lH0_vDPr5M-10" value="" style="endArrow=classic;startArrow=classic;html=1;rounded=0;entryX=0;entryY=0.5;entryDx=0;entryDy=0;strokeColor=#457B9D;fontColor=#1D3557;labelBackgroundColor=#F1FAEE;" parent="WIyWlLk6GJQsqaUBKTNV-1" target="A_P6nnBkY9lH0_vDPr5M-7" edge="1">
                    <mxGeometry width="50" height="50" relative="1" as="geometry">
                        <mxPoint x="650" y="560" as="sourcePoint"/>
                        <mxPoint x="700" y="510" as="targetPoint"/>
                    </mxGeometry>
                </mxCell>
                <mxCell id="A_P6nnBkY9lH0_vDPr5M-11" value="" style="endArrow=classic;startArrow=classic;html=1;rounded=0;entryX=0;entryY=0.5;entryDx=0;entryDy=0;strokeColor=#457B9D;fontColor=#1D3557;labelBackgroundColor=#F1FAEE;" parent="WIyWlLk6GJQsqaUBKTNV-1" edge="1">
                    <mxGeometry width="50" height="50" relative="1" as="geometry">
                        <mxPoint x="920" y="559.09" as="sourcePoint"/>
                        <mxPoint x="990" y="559.09" as="targetPoint"/>
                    </mxGeometry>
                </mxCell>
                <mxCell id="A_P6nnBkY9lH0_vDPr5M-12" value="" style="endArrow=classic;startArrow=classic;html=1;rounded=0;exitX=0.5;exitY=0;exitDx=0;exitDy=0;strokeColor=#457B9D;fontColor=#1D3557;labelBackgroundColor=#F1FAEE;" parent="WIyWlLk6GJQsqaUBKTNV-1" edge="1">
                    <mxGeometry width="50" height="50" relative="1" as="geometry">
                        <mxPoint x="1089.0900000000001" y="460" as="sourcePoint"/>
                        <mxPoint x="1089.0900000000001" y="400" as="targetPoint"/>
                    </mxGeometry>
                </mxCell>
                <mxCell id="A_P6nnBkY9lH0_vDPr5M-13" value="" style="endArrow=classic;startArrow=classic;html=1;rounded=0;entryX=1;entryY=1;entryDx=0;entryDy=0;strokeColor=#457B9D;fontColor=#1D3557;labelBackgroundColor=#F1FAEE;" parent="WIyWlLk6GJQsqaUBKTNV-1" target="A_P6nnBkY9lH0_vDPr5M-3" edge="1">
                    <mxGeometry width="50" height="50" relative="1" as="geometry">
                        <mxPoint x="1050" y="240" as="sourcePoint"/>
                        <mxPoint x="1010" y="185" as="targetPoint"/>
                    </mxGeometry>
                </mxCell>
                <mxCell id="A_P6nnBkY9lH0_vDPr5M-15" value="" style="endArrow=classic;startArrow=classic;html=1;rounded=0;entryX=0;entryY=0.5;entryDx=0;entryDy=0;exitX=1;exitY=0.5;exitDx=0;exitDy=0;strokeColor=#457B9D;fontColor=#1D3557;labelBackgroundColor=#F1FAEE;" parent="WIyWlLk6GJQsqaUBKTNV-1" source="A_P6nnBkY9lH0_vDPr5M-0" target="A_P6nnBkY9lH0_vDPr5M-3" edge="1">
                    <mxGeometry width="50" height="50" relative="1" as="geometry">
                        <mxPoint x="780" y="129" as="sourcePoint"/>
                        <mxPoint x="855" y="129.08999999999997" as="targetPoint"/>
                    </mxGeometry>
                </mxCell>
                <mxCell id="A_P6nnBkY9lH0_vDPr5M-16" value="&lt;font style=&quot;&quot;&gt;&lt;span style=&quot;font-size: 32px;&quot;&gt;header&lt;/span&gt;&lt;br&gt;&lt;ol&gt;&lt;li style=&quot;text-align: left;&quot;&gt;&lt;font style=&quot;&quot;&gt;&lt;font style=&quot;font-size: 14px;&quot;&gt;回首頁&lt;/font&gt;&lt;/font&gt;&lt;/li&gt;&lt;li style=&quot;text-align: left;&quot;&gt;&lt;font style=&quot;&quot;&gt;&lt;font style=&quot;font-size: 14px;&quot;&gt;店家名稱&lt;/font&gt;&lt;/font&gt;&lt;/li&gt;&lt;li style=&quot;text-align: left;&quot;&gt;&lt;font style=&quot;&quot;&gt;&lt;font style=&quot;font-size: 14px;&quot;&gt;聯絡我們&lt;/font&gt;&lt;/font&gt;&lt;/li&gt;&lt;li style=&quot;text-align: left;&quot;&gt;&lt;font style=&quot;&quot;&gt;&lt;font style=&quot;font-size: 14px;&quot;&gt;提示未確認訂單小鈴鐺&lt;/font&gt;&lt;/font&gt;&lt;/li&gt;&lt;/ol&gt;&lt;/font&gt;" style="rounded=1;whiteSpace=wrap;html=1;fillColor=#A8DADC;strokeColor=#457B9D;fontColor=#1D3557;" parent="WIyWlLk6GJQsqaUBKTNV-1" vertex="1">
                    <mxGeometry x="-290" y="780" width="280" height="180" as="geometry"/>
                </mxCell>
                <mxCell id="A_P6nnBkY9lH0_vDPr5M-18" value="" style="endArrow=classic;html=1;rounded=0;exitX=0;exitY=0.5;exitDx=0;exitDy=0;strokeColor=#457B9D;fontColor=#1D3557;labelBackgroundColor=#F1FAEE;" parent="WIyWlLk6GJQsqaUBKTNV-1" source="A_P6nnBkY9lH0_vDPr5M-0" edge="1">
                    <mxGeometry width="50" height="50" relative="1" as="geometry">
                        <mxPoint x="670" y="129.37" as="sourcePoint"/>
                        <mxPoint x="360" y="129.37" as="targetPoint"/>
                    </mxGeometry>
                </mxCell>
                <mxCell id="A_P6nnBkY9lH0_vDPr5M-17" value="快捷點選圖片" style="ellipse;whiteSpace=wrap;html=1;fillColor=#A8DADC;strokeColor=#457B9D;fontColor=#1D3557;" parent="WIyWlLk6GJQsqaUBKTNV-1" vertex="1">
                    <mxGeometry x="440" y="90" width="120" height="80" as="geometry"/>
                </mxCell>
                <mxCell id="A_P6nnBkY9lH0_vDPr5M-26" value="" style="rounded=0;whiteSpace=wrap;html=1;sketch=0;fontColor=#1D3557;strokeColor=#457B9D;fillColor=#A8DADC;" parent="WIyWlLk6GJQsqaUBKTNV-1" vertex="1">
                    <mxGeometry x="-210" y="60" width="570" height="130" as="geometry"/>
                </mxCell>
                <mxCell id="A_P6nnBkY9lH0_vDPr5M-27" value="修改菜品" style="rounded=1;whiteSpace=wrap;html=1;sketch=0;fontColor=#1D3557;strokeColor=#457B9D;fillColor=#A8DADC;" parent="WIyWlLk6GJQsqaUBKTNV-1" vertex="1">
                    <mxGeometry x="-50" y="95" width="120" height="60" as="geometry"/>
                </mxCell>
                <mxCell id="A_P6nnBkY9lH0_vDPr5M-28" value="銷售分析" style="rounded=1;whiteSpace=wrap;html=1;sketch=0;fontColor=#1D3557;strokeColor=#457B9D;fillColor=#A8DADC;" parent="WIyWlLk6GJQsqaUBKTNV-1" vertex="1">
                    <mxGeometry x="80" y="95" width="120" height="60" as="geometry"/>
                </mxCell>
                <mxCell id="A_P6nnBkY9lH0_vDPr5M-29" value="獲利明細" style="rounded=1;whiteSpace=wrap;html=1;sketch=0;fontColor=#1D3557;strokeColor=#457B9D;fillColor=#A8DADC;" parent="WIyWlLk6GJQsqaUBKTNV-1" vertex="1">
                    <mxGeometry x="210" y="95" width="120" height="60" as="geometry"/>
                </mxCell>
                <mxCell id="A_P6nnBkY9lH0_vDPr5M-30" value="確認訂單" style="rounded=1;whiteSpace=wrap;html=1;sketch=0;fontColor=#1D3557;strokeColor=#457B9D;fillColor=#A8DADC;" parent="WIyWlLk6GJQsqaUBKTNV-1" vertex="1">
                    <mxGeometry x="-180" y="95" width="120" height="60" as="geometry"/>
                </mxCell>
                <mxCell id="A_P6nnBkY9lH0_vDPr5M-31" value="" style="endArrow=classic;html=1;rounded=1;sketch=0;fontSize=14;fontColor=#1D3557;strokeColor=#457B9D;fillColor=#A8DADC;curved=0;" parent="WIyWlLk6GJQsqaUBKTNV-1" edge="1">
                    <mxGeometry width="50" height="50" relative="1" as="geometry">
                        <mxPoint x="699.38" y="30" as="sourcePoint"/>
                        <mxPoint x="699.38" y="-120" as="targetPoint"/>
                    </mxGeometry>
                </mxCell>
                <mxCell id="A_P6nnBkY9lH0_vDPr5M-33" value="頁面顯示" style="ellipse;whiteSpace=wrap;html=1;rounded=0;sketch=0;fontSize=14;fontColor=#1D3557;strokeColor=#457B9D;fillColor=#A8DADC;" parent="WIyWlLk6GJQsqaUBKTNV-1" vertex="1">
                    <mxGeometry x="640" y="-80" width="120" height="80" as="geometry"/>
                </mxCell>
                <mxCell id="A_P6nnBkY9lH0_vDPr5M-36" value="&lt;ol&gt;&lt;li&gt;重要資料&lt;/li&gt;&lt;li style=&quot;&quot;&gt;分析圖表&lt;/li&gt;&lt;/ol&gt;" style="rounded=0;whiteSpace=wrap;html=1;sketch=0;fontSize=14;fontColor=#1D3557;strokeColor=#457B9D;fillColor=#A8DADC;align=left;" parent="WIyWlLk6GJQsqaUBKTNV-1" vertex="1">
                    <mxGeometry x="610" y="-320" width="180" height="200" as="geometry"/>
                </mxCell>
                <mxCell id="A_P6nnBkY9lH0_vDPr5M-48" value="" style="edgeStyle=orthogonalEdgeStyle;curved=0;rounded=1;sketch=0;orthogonalLoop=1;jettySize=auto;html=1;fontSize=14;fontColor=#1D3557;strokeColor=#457B9D;fillColor=#A8DADC;" parent="WIyWlLk6GJQsqaUBKTNV-1" source="A_P6nnBkY9lH0_vDPr5M-49" edge="1">
                    <mxGeometry relative="1" as="geometry">
                        <mxPoint x="950" y="30" as="targetPoint"/>
                    </mxGeometry>
                </mxCell>
                <mxCell id="A_P6nnBkY9lH0_vDPr5M-58" value="" style="edgeStyle=orthogonalEdgeStyle;curved=0;rounded=1;sketch=0;orthogonalLoop=1;jettySize=auto;html=1;fontSize=14;fontColor=#FFFF00;strokeColor=#457B9D;fillColor=#A8DADC;" parent="WIyWlLk6GJQsqaUBKTNV-1" source="A_P6nnBkY9lH0_vDPr5M-49" target="A_P6nnBkY9lH0_vDPr5M-3" edge="1">
                    <mxGeometry relative="1" as="geometry"/>
                </mxCell>
                <mxCell id="A_P6nnBkY9lH0_vDPr5M-49" value="頁面顯示" style="ellipse;whiteSpace=wrap;html=1;rounded=0;sketch=0;fontSize=14;fontColor=#1D3557;strokeColor=#457B9D;fillColor=#A8DADC;" parent="WIyWlLk6GJQsqaUBKTNV-1" vertex="1">
                    <mxGeometry x="890" y="-80" width="120" height="80" as="geometry"/>
                </mxCell>
                <mxCell id="A_P6nnBkY9lH0_vDPr5M-50" value="&lt;ol&gt;&lt;li&gt;菜單表格&lt;/li&gt;&lt;li&gt;&lt;font color=&quot;#ffff00&quot;&gt;新增菜單按鈕&lt;/font&gt;&lt;/li&gt;&lt;li&gt;刪除菜單按鈕&lt;/li&gt;&lt;li&gt;查詢菜單&lt;/li&gt;&lt;/ol&gt;" style="rounded=0;whiteSpace=wrap;html=1;sketch=0;fontSize=14;fontColor=#1D3557;strokeColor=#457B9D;fillColor=#A8DADC;align=left;" parent="WIyWlLk6GJQsqaUBKTNV-1" vertex="1">
                    <mxGeometry x="860" y="-320" width="180" height="200" as="geometry"/>
                </mxCell>
                <mxCell id="A_P6nnBkY9lH0_vDPr5M-52" value="" style="endArrow=classic;html=1;rounded=1;sketch=0;fontSize=14;fontColor=#1D3557;strokeColor=#36393d;fillColor=#ffff88;curved=0;startArrow=none;" parent="WIyWlLk6GJQsqaUBKTNV-1" source="A_P6nnBkY9lH0_vDPr5M-53" edge="1">
                    <mxGeometry width="50" height="50" relative="1" as="geometry">
                        <mxPoint x="990" y="-230" as="sourcePoint"/>
                        <mxPoint x="990" y="-450" as="targetPoint"/>
                    </mxGeometry>
                </mxCell>
                <mxCell id="A_P6nnBkY9lH0_vDPr5M-53" value="alert" style="ellipse;whiteSpace=wrap;html=1;rounded=0;sketch=0;fontSize=14;strokeColor=#36393d;fillColor=#ffff88;" parent="WIyWlLk6GJQsqaUBKTNV-1" vertex="1">
                    <mxGeometry x="930" y="-420" width="120" height="80" as="geometry"/>
                </mxCell>
                <mxCell id="A_P6nnBkY9lH0_vDPr5M-54" value="" style="endArrow=none;html=1;rounded=1;sketch=0;fontSize=14;fontColor=#1D3557;strokeColor=#36393d;fillColor=#ffff88;curved=0;" parent="WIyWlLk6GJQsqaUBKTNV-1" target="A_P6nnBkY9lH0_vDPr5M-53" edge="1">
                    <mxGeometry width="50" height="50" relative="1" as="geometry">
                        <mxPoint x="990" y="-230" as="sourcePoint"/>
                        <mxPoint x="990" y="-450" as="targetPoint"/>
                    </mxGeometry>
                </mxCell>
                <mxCell id="A_P6nnBkY9lH0_vDPr5M-56" value="新增菜單表格" style="rounded=1;whiteSpace=wrap;html=1;sketch=0;fontSize=14;strokeColor=#36393d;fillColor=#ffff88;" parent="WIyWlLk6GJQsqaUBKTNV-1" vertex="1">
                    <mxGeometry x="930" y="-510" width="120" height="60" as="geometry"/>
                </mxCell>
                <mxCell id="A_P6nnBkY9lH0_vDPr5M-70" value="" style="endArrow=classic;html=1;rounded=1;sketch=0;fontSize=14;fontColor=#FFFF00;strokeColor=#457B9D;fillColor=#A8DADC;curved=0;" parent="WIyWlLk6GJQsqaUBKTNV-1" edge="1">
                    <mxGeometry width="50" height="50" relative="1" as="geometry">
                        <mxPoint x="1190" y="300" as="sourcePoint"/>
                        <mxPoint x="1360" y="300" as="targetPoint"/>
                    </mxGeometry>
                </mxCell>
                <mxCell id="A_P6nnBkY9lH0_vDPr5M-73" value="&lt;font color=&quot;#000000&quot;&gt;頁面顯示&lt;/font&gt;" style="ellipse;whiteSpace=wrap;html=1;rounded=0;sketch=0;fontSize=14;fontColor=#FFFF00;strokeColor=#457B9D;fillColor=#A8DADC;" parent="WIyWlLk6GJQsqaUBKTNV-1" vertex="1">
                    <mxGeometry x="1200" y="260" width="120" height="80" as="geometry"/>
                </mxCell>
                <mxCell id="A_P6nnBkY9lH0_vDPr5M-74" value="&lt;ol&gt;&lt;li&gt;每月分銷售額分析圖&lt;/li&gt;&lt;li style=&quot;&quot;&gt;年齡層客群分析圖&lt;/li&gt;&lt;li style=&quot;&quot;&gt;未決定分析圖&lt;/li&gt;&lt;li style=&quot;&quot;&gt;未決定分析圖&lt;/li&gt;&lt;/ol&gt;" style="rounded=0;whiteSpace=wrap;html=1;sketch=0;fontSize=14;fontColor=#000000;strokeColor=#457B9D;fillColor=#A8DADC;align=left;" parent="WIyWlLk6GJQsqaUBKTNV-1" vertex="1">
                    <mxGeometry x="1360" y="170" width="180" height="190" as="geometry"/>
                </mxCell>
                <mxCell id="A_P6nnBkY9lH0_vDPr5M-75" value="" style="endArrow=classic;html=1;rounded=1;sketch=0;fontSize=14;fontColor=#000000;strokeColor=#457B9D;fillColor=#A8DADC;curved=0;startArrow=none;" parent="WIyWlLk6GJQsqaUBKTNV-1" source="A_P6nnBkY9lH0_vDPr5M-76" edge="1">
                    <mxGeometry width="50" height="50" relative="1" as="geometry">
                        <mxPoint x="1190" y="560" as="sourcePoint"/>
                        <mxPoint x="1410" y="560" as="targetPoint"/>
                    </mxGeometry>
                </mxCell>
                <mxCell id="A_P6nnBkY9lH0_vDPr5M-76" value="頁面顯示" style="ellipse;whiteSpace=wrap;html=1;rounded=0;sketch=0;fontSize=14;fontColor=#000000;strokeColor=#457B9D;fillColor=#A8DADC;" parent="WIyWlLk6GJQsqaUBKTNV-1" vertex="1">
                    <mxGeometry x="1230" y="520" width="120" height="80" as="geometry"/>
                </mxCell>
                <mxCell id="A_P6nnBkY9lH0_vDPr5M-77" value="" style="endArrow=none;html=1;rounded=1;sketch=0;fontSize=14;fontColor=#000000;strokeColor=#457B9D;fillColor=#A8DADC;curved=0;" parent="WIyWlLk6GJQsqaUBKTNV-1" target="A_P6nnBkY9lH0_vDPr5M-76" edge="1">
                    <mxGeometry width="50" height="50" relative="1" as="geometry">
                        <mxPoint x="1190" y="560" as="sourcePoint"/>
                        <mxPoint x="1410" y="560" as="targetPoint"/>
                    </mxGeometry>
                </mxCell>
                <mxCell id="A_P6nnBkY9lH0_vDPr5M-78" value="&lt;ol&gt;&lt;li&gt;未確認訂單顯示鈕&lt;/li&gt;&lt;li&gt;未確認訂單表格&lt;/li&gt;&lt;li&gt;確認訂單顯示鈕&lt;/li&gt;&lt;li&gt;確認訂單表格&lt;/li&gt;&lt;li&gt;取消訂單顯示鈕&lt;/li&gt;&lt;li&gt;取消訂單表格&lt;/li&gt;&lt;li&gt;完成訂單顯示按鈕&lt;/li&gt;&lt;li&gt;完成訂單表格&lt;/li&gt;&lt;li&gt;搜尋目前表格&lt;/li&gt;&lt;li&gt;確認未確認訂單鈕&lt;/li&gt;&lt;/ol&gt;" style="rounded=0;whiteSpace=wrap;html=1;sketch=0;fontSize=14;fontColor=#000000;strokeColor=#457B9D;fillColor=#A8DADC;align=left;" parent="WIyWlLk6GJQsqaUBKTNV-1" vertex="1">
                    <mxGeometry x="1410" y="430" width="190" height="290" as="geometry"/>
                </mxCell>
                <mxCell id="A_P6nnBkY9lH0_vDPr5M-79" value="" style="endArrow=classic;html=1;rounded=1;sketch=0;fontSize=14;fontColor=#000000;strokeColor=#457B9D;fillColor=#A8DADC;curved=0;" parent="WIyWlLk6GJQsqaUBKTNV-1" edge="1">
                    <mxGeometry width="50" height="50" relative="1" as="geometry">
                        <mxPoint x="820" y="660" as="sourcePoint"/>
                        <mxPoint x="820" y="830" as="targetPoint"/>
                    </mxGeometry>
                </mxCell>
                <mxCell id="A_P6nnBkY9lH0_vDPr5M-80" value="頁面顯示" style="ellipse;whiteSpace=wrap;html=1;rounded=0;sketch=0;fontSize=14;fontColor=#000000;strokeColor=#457B9D;fillColor=#A8DADC;" parent="WIyWlLk6GJQsqaUBKTNV-1" vertex="1">
                    <mxGeometry x="760" y="690" width="120" height="80" as="geometry"/>
                </mxCell>
                <mxCell id="A_P6nnBkY9lH0_vDPr5M-81" value="&lt;ol&gt;&lt;li&gt;營養成分表格&lt;/li&gt;&lt;li&gt;搜尋營養成分&lt;/li&gt;&lt;/ol&gt;" style="rounded=0;whiteSpace=wrap;html=1;sketch=0;fontSize=14;fontColor=#000000;strokeColor=#457B9D;fillColor=#A8DADC;align=left;" parent="WIyWlLk6GJQsqaUBKTNV-1" vertex="1">
                    <mxGeometry x="690" y="840" width="260" height="140" as="geometry"/>
                </mxCell>
                <mxCell id="A_P6nnBkY9lH0_vDPr5M-82" value="" style="endArrow=classic;html=1;rounded=1;sketch=0;fontSize=14;fontColor=#000000;strokeColor=#457B9D;fillColor=#A8DADC;curved=0;" parent="WIyWlLk6GJQsqaUBKTNV-1" edge="1">
                    <mxGeometry width="50" height="50" relative="1" as="geometry">
                        <mxPoint x="450" y="560" as="sourcePoint"/>
                        <mxPoint x="370" y="560" as="targetPoint"/>
                    </mxGeometry>
                </mxCell>
                <mxCell id="A_P6nnBkY9lH0_vDPr5M-84" value="&lt;ol&gt;&lt;li&gt;顧客基本資料表格&lt;/li&gt;&lt;li&gt;搜尋顧客基本資料&lt;/li&gt;&lt;/ol&gt;" style="rounded=0;whiteSpace=wrap;html=1;sketch=0;fontSize=14;fontColor=#000000;strokeColor=#457B9D;fillColor=#A8DADC;align=left;" parent="WIyWlLk6GJQsqaUBKTNV-1" vertex="1">
                    <mxGeometry x="110" y="550" width="260" height="140" as="geometry"/>
                </mxCell>
                <mxCell id="A_P6nnBkY9lH0_vDPr5M-85" value="&lt;ol&gt;&lt;li&gt;輸入廣播訊息&lt;/li&gt;&lt;li&gt;廣播訊息加入折扣卷按鈕&lt;/li&gt;&lt;li&gt;廣播訊息加入商品按鈕&lt;/li&gt;&lt;li&gt;廣播訊息加入圖片上傳&lt;/li&gt;&lt;li&gt;送出廣播訊息&lt;/li&gt;&lt;li&gt;編輯3筆以前的廣播訊息&lt;/li&gt;&lt;/ol&gt;" style="rounded=0;whiteSpace=wrap;html=1;sketch=0;fontSize=14;fontColor=#000000;strokeColor=#457B9D;fillColor=#A8DADC;" parent="WIyWlLk6GJQsqaUBKTNV-1" vertex="1">
                    <mxGeometry x="-10" y="270" width="250" height="160" as="geometry"/>
                </mxCell>
                <mxCell id="0" value="&lt;span style=&quot;color: rgb(185, 187, 190); font-family: consolas, &amp;quot;andale mono wt&amp;quot;, &amp;quot;andale mono&amp;quot;, &amp;quot;lucida console&amp;quot;, &amp;quot;lucida sans typewriter&amp;quot;, &amp;quot;dejavu sans mono&amp;quot;, &amp;quot;bitstream vera sans mono&amp;quot;, &amp;quot;liberation mono&amp;quot;, &amp;quot;nimbus mono l&amp;quot;, monaco, &amp;quot;courier new&amp;quot;, courier, monospace; font-size: 14px; font-style: normal; font-weight: 400; letter-spacing: normal; text-align: left; text-indent: 0px; text-transform: none; word-spacing: 0px; background-color: rgb(47, 49, 54); display: inline; float: none;&quot;&gt;function btn() {&#10;    $.ajax(&quot;./Jsontest.json&quot;)//toarry&#10;        .done(function (index) {&#10;            var ingredientsname = document.getElementsByName('ingredientsName');&#10;            var ingredientsgrams = document.getElementsByName('ingredientsGrams');&#10;            var calorietot = 0;&#10;            var carbtot = 0;&#10;            var fattot = 0;&#10;            var proteintot = 0;&#10;            for (var i = 0; i &amp;lt; ingredientsname.length; i++) {&#10;                if (ingredientsname[i].value != &quot;&quot; &amp;amp;&amp;amp; ingredientsgrams[i].value != &quot;&quot;) {&#10;                    var calorie;&#10;                    var carb;&#10;                    var fat;&#10;                    var protein;&#10;                    for (var a of index) {&#10;                        if (ingredientsname[i].value == a.INGREDIENT_NAME) {&#10;                            calorie = a.CALORIE;&#10;                            carb = a.CARB;&#10;                            fat = a.FAT;&#10;                            protein = a.PROTEIN;&#10;                            var inputgrams = Number(ingredientsgrams[i].value);&#10;&#10;                            calorietot += calorie;&#10;                            carbtot += carb;&#10;                            fattot += fat;&#10;                            proteintot += protein;&#10;&#10;                            var caloriefloat =parseFloat((inputgrams * calorietot).toFixed(2));&#10;                            var carbfloat = parseFloat((inputgrams * carbtot).toFixed(2));&#10;                            var fatfloat = parseFloat((inputgrams * fattot).toFixed(2));&#10;                            var proteintfloat = parseFloat((inputgrams * proteintot).toFixed(2));&#10;                        }&#10;                    }&#10;                    $('#nutritionOperation').html(&#10;                        &quot;&amp;lt;hr&amp;gt;熱量:&quot; + `${caloriefloat}` +&#10;                        &quot;(kcal)&amp;lt;br&amp;gt;碳水化合物:&quot; + `${carbfloat}` +&#10;                        &quot;(g)&amp;lt;br&amp;gt;脂肪:&quot; + `${fatfloat}` +&#10;                        &quot;(g)&amp;lt;br&amp;gt;蛋白質:&quot; + `${proteintfloat}` + &quot;(g)&quot;);&#10;                }else{&#10;                    alert(&quot;請輸入完整資訊&quot;);&#10;                }&#10;            }&#10;&#10;        })&#10;        .fail(function () {&#10;            alert(&quot;error&quot;);&#10;        })&#10;}&lt;/span&gt;" style="text;whiteSpace=wrap;html=1;" vertex="1" parent="WIyWlLk6GJQsqaUBKTNV-1">
                    <mxGeometry x="-820" y="-510" width="550" height="760" as="geometry"/>
                </mxCell>
            </root>
        </mxGraphModel>
    </diagram>
</mxfile>